<svg width="20" height="21" viewBox="0 0 20 21" fill="none" xmlns="http://www.w3.org/2000/svg">
<path d="M17.0938 10.7295L11.4688 16.3545C11.4403 16.3838 11.4063 16.4071 11.3688 16.423C11.3312 16.4389 11.2908 16.4471 11.25 16.4471C11.2092 16.4471 11.1688 16.4389 11.1312 16.423C11.0937 16.4071 11.0597 16.3838 11.0313 16.3545C11.002 16.3261 10.9787 16.2921 10.9628 16.2545C10.9469 16.2169 10.9387 16.1765 10.9387 16.1357C10.9387 16.0949 10.9469 16.0545 10.9628 16.017C10.9787 15.9794 11.002 15.9454 11.0313 15.917L16.1172 10.8232H3.125C3.04212 10.8232 2.96263 10.7903 2.90403 10.7317C2.84542 10.6731 2.8125 10.5936 2.8125 10.5107C2.8125 10.4279 2.84542 10.3484 2.90403 10.2898C2.96263 10.2312 3.04212 10.1982 3.125 10.1982H16.1172L11.0313 5.10449C10.9861 5.04431 10.9642 4.96987 10.9695 4.89484C10.9749 4.81981 11.0071 4.74921 11.0603 4.69602C11.1135 4.64283 11.1841 4.61061 11.2591 4.60528C11.3341 4.59995 11.4086 4.62186 11.4688 4.66699L17.0938 10.292C17.123 10.3204 17.1463 10.3544 17.1622 10.392C17.1782 10.4295 17.1863 10.4699 17.1863 10.5107C17.1863 10.5515 17.1782 10.5919 17.1622 10.6295C17.1463 10.6671 17.123 10.7011 17.0938 10.7295V10.7295Z" fill="black"/>
</svg>
