<svg width="30" height="30" viewBox="0 0 30 30" fill="none" xmlns="http://www.w3.org/2000/svg">
<path d="M26.25 6.09375H3.75C3.62568 6.09375 3.50645 6.14314 3.41854 6.23104C3.33064 6.31895 3.28125 6.43818 3.28125 6.5625V22.5C3.28125 22.873 3.42941 23.2306 3.69313 23.4944C3.95685 23.7581 4.31454 23.9062 4.6875 23.9062H25.3125C25.6855 23.9062 26.0431 23.7581 26.3069 23.4944C26.5706 23.2306 26.7188 22.873 26.7188 22.5V6.5625C26.7188 6.43818 26.6694 6.31895 26.5815 6.23104C26.4935 6.14314 26.3743 6.09375 26.25 6.09375ZM15 16.2422L4.95703 7.03125H25.043L15 16.2422ZM12.2578 15L4.21875 22.3711V7.62891L12.2578 15ZM12.9492 15.6328L14.6836 17.2148C14.7687 17.2965 14.8821 17.3421 15 17.3421C15.1179 17.3421 15.2313 17.2965 15.3164 17.2148L17.0508 15.6328L25.043 22.9688H4.95703L12.9492 15.6328ZM17.7422 15L25.7812 7.62891V22.3711L17.7422 15Z" fill="white"/>
</svg>
