<svg width="26" height="26" viewBox="0 0 26 26" fill="none" xmlns="http://www.w3.org/2000/svg">
<path d="M13.1686 12.3131C12.478 12.3131 11.8156 12.0387 11.3272 11.5503C10.8388 11.062 10.5645 10.3996 10.5645 9.7089C10.5645 9.01824 10.8388 8.35586 11.3272 7.86748C11.8156 7.3791 12.478 7.10474 13.1686 7.10474C13.8593 7.10474 14.5217 7.3791 15.01 7.86748C15.4984 8.35586 15.7728 9.01824 15.7728 9.7089C15.7728 10.0509 15.7054 10.3895 15.5746 10.7055C15.4437 11.0214 15.2519 11.3085 15.01 11.5503C14.7682 11.7921 14.4811 11.984 14.1652 12.1148C13.8492 12.2457 13.5106 12.3131 13.1686 12.3131ZM13.1686 2.41724C11.2347 2.41724 9.38009 3.18546 8.01263 4.55292C6.64518 5.92037 5.87695 7.77503 5.87695 9.7089C5.87695 15.1777 13.1686 23.2506 13.1686 23.2506C13.1686 23.2506 20.4603 15.1777 20.4603 9.7089C20.4603 7.77503 19.6921 5.92037 18.3246 4.55292C16.9572 3.18546 15.1025 2.41724 13.1686 2.41724Z" fill="#1E1E1E"/>
</svg>
