<svg width="26" height="26" viewBox="0 0 26 26" fill="none" xmlns="http://www.w3.org/2000/svg">
<path d="M7.22786 11.5736C8.72786 14.5215 11.1445 16.9381 14.0924 18.4381L16.3841 16.1465C16.6758 15.8548 17.082 15.7715 17.4466 15.8861C18.6133 16.2715 19.8633 16.4798 21.1654 16.4798C21.4416 16.4798 21.7066 16.5896 21.9019 16.7849C22.0973 16.9803 22.207 17.2452 22.207 17.5215V21.1673C22.207 21.4436 22.0973 21.7085 21.9019 21.9039C21.7066 22.0992 21.4416 22.209 21.1654 22.209C16.4688 22.209 11.9646 20.3433 8.64368 17.0223C5.32273 13.7014 3.45703 9.19719 3.45703 4.50065C3.45703 4.22438 3.56678 3.95943 3.76213 3.76408C3.95748 3.56873 4.22243 3.45898 4.4987 3.45898H8.14453C8.4208 3.45898 8.68575 3.56873 8.8811 3.76408C9.07645 3.95943 9.1862 4.22438 9.1862 4.50065C9.1862 5.80273 9.39453 7.05273 9.77995 8.2194C9.89453 8.58398 9.8112 8.99023 9.51953 9.2819L7.22786 11.5736Z" fill="#1E1E1E"/>
</svg>
