<svg width="30" height="30" viewBox="0 0 30 30" fill="none" xmlns="http://www.w3.org/2000/svg">
<path d="M20.625 26.0155C11.4492 26.0155 3.98438 18.5507 3.98438 9.3749C3.98603 7.83469 4.54832 6.34775 5.56622 5.19184C6.58411 4.03592 7.98799 3.29009 9.51562 3.09365C9.86714 3.0525 10.2225 3.12612 10.5288 3.30353C10.835 3.48094 11.0757 3.75262 11.2148 4.07802L13.5703 9.57412C13.6772 9.82279 13.7213 10.0939 13.6988 10.3636C13.6763 10.6334 13.5879 10.8934 13.4414 11.121L11.4844 14.0976C11.465 14.1311 11.4539 14.1688 11.4519 14.2075C11.4498 14.2462 11.4569 14.2848 11.4727 14.3202C12.3728 16.1658 13.8668 17.6556 15.7148 18.5507C15.7507 18.5668 15.7902 18.5731 15.8293 18.569C15.8684 18.5649 15.9058 18.5505 15.9375 18.5272L18.8789 16.5702C19.1042 16.4188 19.364 16.3266 19.6344 16.302C19.9047 16.2775 20.1769 16.3213 20.4258 16.4296L25.9219 18.7851C26.2473 18.9242 26.519 19.1649 26.6964 19.4711C26.8738 19.7774 26.9474 20.1328 26.9063 20.4843C26.7098 22.0119 25.964 23.4158 24.8081 24.4337C23.6521 25.4516 22.1652 26.0139 20.625 26.0155ZM9.71484 4.48818H9.69141C8.5045 4.6442 7.41447 5.22545 6.62357 6.1241C5.83268 7.02275 5.3946 8.17779 5.39063 9.3749C5.39373 13.4144 6.99977 17.2875 9.8561 20.1438C12.7124 23.0001 16.5855 24.6062 20.625 24.6093C21.8221 24.6053 22.9771 24.1672 23.8758 23.3763C24.7744 22.5854 25.3557 21.4954 25.5117 20.3085C25.5157 20.2596 25.5043 20.2107 25.4791 20.1687C25.4539 20.1266 25.4161 20.0936 25.3711 20.0741L19.875 17.7186C19.8387 17.7047 19.7996 17.6995 19.7609 17.7036C19.7221 17.7077 19.685 17.7208 19.6523 17.7421L16.7227 19.6991C16.4855 19.8549 16.2124 19.9475 15.9293 19.968C15.6462 19.9885 15.3627 19.9363 15.1055 19.8163C12.9739 18.7786 11.2499 17.0587 10.207 14.9296C10.0852 14.6755 10.031 14.3942 10.0494 14.113C10.0679 13.8318 10.1585 13.5601 10.3125 13.3241L12.2578 10.3476C12.281 10.3158 12.2954 10.2785 12.2996 10.2394C12.3037 10.2003 12.2974 10.1608 12.2813 10.1249L9.92578 4.6288C9.90781 4.58761 9.87837 4.55244 9.84097 4.52751C9.80357 4.50258 9.75979 4.48892 9.71484 4.48818Z" fill="white"/>
</svg>
